<svg xmlns="http://www.w3.org/2000/svg" viewBox="0 0 120 44">
  <defs>
    <style>
      .a {
        fill: #a84b10;
      }

      .b {
        fill: #d9761e;
      }

      .c {
        fill: #f7e2b5;
      }

      .d {
        fill: #dc751c;
      }

      .e {
        fill: #d9741c;
      }

      .f {
        fill: #c8a872;
      }

      .g {
        fill: #0d0302;
      }

      .h {
        fill: #c6742a;
      }

      .i {
        fill: #cd6a16;
      }

      .j {
        fill: #b56c33;
      }

      .k {
        fill: #9f450f;
      }

      .l {
        fill: #c1a276;
      }

      .m {
        fill: #c1844c;
      }

      .n {
        fill: #b57946;
      }

      .o {
        fill: #4e1706;
      }

      .p {
        fill: #aa230f;
      }

      .q {
        fill: #01010b;
      }

      .r {
        fill: #03529d;
      }

      .s {
        fill: #0c0306;
      }

      .t {
        fill: #03519c;
      }

      .u {
        fill: #a41e0f;
      }

      .v {
        fill: #a61f0f;
      }

      .w {
        fill: #bc9d70;
      }

      .x {
        fill: #71271b;
      }

      .y {
        fill: #daad71;
      }

      .z {
        fill: #a48569;
      }

      .aa {
        fill: #0e0403;
      }

      .ab {
        fill: #954c19;
      }

      .ac {
        fill: #e17c3a;
      }

      .ad {
        fill: #a75926;
      }

      .ae {
        fill: #171e1f;
      }

      .af {
        fill: #ebe3c4;
      }

      .ag {
        fill: #23292b;
      }

      .ah {
        fill: #010208;
      }

      .ai {
        fill: #a42313;
      }

      .aj {
        fill: #4d0e0b;
      }

      .ak {
        fill: #220607;
      }

      .al {
        fill: #e5843e;
      }

      .am {
        fill: #a9541a;
      }

      .an {
        fill: #e3d9b7;
      }

      .ao {
        fill: #ede2bb;
      }

      .ap {
        fill: #212227;
      }

      .aq {
        fill: #edab25;
      }
    </style>
  </defs>
  <g>
    <path class="a" d="M18.52,42.26A72.92,72.92,0,0,1,27,44.15h9.91c2.68-.78,4.78-2,4.77-3,0-.55-.55-.69-.81-1.61-.57-1.94,1.26-3.28.92-4.12-.77-1.95-11.18,3.67-20.86.7-5.48-1.68-9.7-5.8-10.9-4.54-.68.71.26,1.77-.32,4.86-.39,2-.92,2.22-.7,3C9.55,41.24,13.39,41.42,18.52,42.26Z"/>
    <path class="b" d="M27.06,44.15C22.85,42.8,18.79,41,14.62,39.58a4.1,4.1,0,0,0-3.41.1,6.94,6.94,0,0,0-3.73,4.47Z"/>
    <path class="b" d="M42.57,44.15q-.76-1-1.56-2c-1-1.25-2-1.26-3.28-.23-.27.23-.52.49-.77.74a6.92,6.92,0,0,1-1.7,1.3l-.39.17Z"/>
    <path class="c" d="M37.77,40.36a7.1,7.1,0,0,1-6.17,2.4c-.38,0-.76-.08-1.13-.12a29.06,29.06,0,0,1-7-3.09c-.19-.11-.34-.24-.59.06s-.79.22-1.19.06c-1.47-.59-2.92-1.24-4.38-1.88a7.52,7.52,0,0,1-3.7-5.74c-.19-2.45.77-5,4-5.73a9.8,9.8,0,0,0,1-.23c-1.3-.75-1.23-2-1.15-3.17a17.85,17.85,0,0,1,.82-4.56A6.66,6.66,0,0,1,27.1,14a8.44,8.44,0,0,1,1.52.64,1.77,1.77,0,0,1,.17.12c1.07.74,1.09.76,1.93-.16a3.93,3.93,0,0,1,4.2-1,5.67,5.67,0,0,1,3.54,2.91,18.23,18.23,0,0,1,1.15,2.45A7.09,7.09,0,0,1,40,21c-.27.28-.44,0-.57-.15a49.85,49.85,0,0,0-3.83-4.51.37.37,0,0,1-.13-.45c.45-.25.83,0,1.21.17s.55.35,1,.51a3.38,3.38,0,0,0-2.5-2.14,2.85,2.85,0,0,0-2.73,1.34.85.85,0,0,0-.08,1.07c.28.36.64.07,1,0S34,16,34.53,16.2A3.61,3.61,0,0,1,34,18c-.43,1-.76,2-1.14,3-.45,1.19.11,2.29.44,3.4.06.22.25.4.23.66-.44.35-1,.33-1.5.54-.92.38-1.76.83-2,1.92a2.94,2.94,0,0,0,1.66,3.07c.3.17.76.19.79.69A4.58,4.58,0,0,1,30,31.8a14.31,14.31,0,0,1-7-1.53,4.42,4.42,0,0,1-1.95-1.49c-.66-1-2.32-1-3.41-.17a2.37,2.37,0,0,0-.5,3.21,1.64,1.64,0,0,0,1.46.75,2.32,2.32,0,0,1,1.71.75,44.73,44.73,0,0,0,7,5.61,11.09,11.09,0,0,0,4.05,1.54,6,6,0,0,0,6.3-2.57,45.63,45.63,0,0,0,3.64-6.65,1.34,1.34,0,0,1,.93-.87,2,2,0,0,0,1.06-2.51,1.66,1.66,0,0,0-2.67-1,.79.79,0,0,0-.39,1,.83.83,0,0,1,0,.22c-.35,1.44-3.19,3.36-4.67,2.9-.19-.34.15-.39.3-.52a3.09,3.09,0,0,0,1.14-1.34,4.1,4.1,0,0,0,.46-2.45c.54-.24.65.42,1.09.51.37-.88.78-1.75,1.13-2.65.08-.2.08-.54.46-.48.11.33.2.53.68.44a3,3,0,0,1,2.41.65c1.82,2,1.72,4.23,1,6.59a2.28,2.28,0,0,0-.59.87,13,13,0,0,1-1.28,2.59,8.78,8.78,0,0,1-2.13,2.49.2.2,0,0,1-.21-.15.38.38,0,0,1,0-.33A23.54,23.54,0,0,1,37.77,40.36Z"/>
    <path class="d" d="M28.58,14.74a10.26,10.26,0,0,0-3.92-1,6.19,6.19,0,0,0-5.92,3.85,14.63,14.63,0,0,0-1,7.2,1,1,0,0,0,.41.72l.45.35c.13.1.25.21.46.4l-1.3.22a4.83,4.83,0,0,0-3.9,4.29c-.3,2.58.88,4.49,2.63,6.18a11.6,11.6,0,0,0,.95.75c.54.42,1.1.81,1.67,1.19.18.12.52.2.3.55a1.79,1.79,0,0,1-1.15-.29c-2.3-1-4.56-2.16-6-4.3a7.68,7.68,0,0,1-.95-8.1,14.43,14.43,0,0,0,1-4.1,19.05,19.05,0,0,1,1.45-4.23c.28-.4.44-.86.71-1.26a39.09,39.09,0,0,1,2.82-3.2.31.31,0,0,0,0-.4A23.82,23.82,0,0,0,12.9,8.42c-.28-.27-.59-.74-1-.56s-.27.71-.3,1.1a16.62,16.62,0,0,0,1.66,8.47,2.27,2.27,0,0,1,.19.61A3.87,3.87,0,0,1,13,20c-.14.31-.3.26-.49.08a2.31,2.31,0,0,1-.37-.6,18.32,18.32,0,0,1-2.3-7.59,1.43,1.43,0,0,0-.1-.42,17.81,17.81,0,0,1,.39-5.54C10.41,4.82,11,4.48,12,5a24.36,24.36,0,0,1,4.75,3.52c.18.16.34.34.52.5a8.94,8.94,0,0,0,1.64,1.67c.2.2.47.36.59.6a1.25,1.25,0,0,0,1.86.54c1.24-.29,2.49-.52,3.74-.76a14.25,14.25,0,0,1,4.65.17,14.18,14.18,0,0,1,4.58,1.46c.17.09.35.16.51.25s.38.19.3.42-.3.13-.49.13a6.47,6.47,0,0,0-2.32.06,4.16,4.16,0,0,0-1.88,1.34c-.49.6-.64.63-1.29.16A3.65,3.65,0,0,0,28.58,14.74Z"/>
    <path class="a" d="M9.35,30.48c.46-.12.35.13.35.34a7.7,7.7,0,0,0,3.53,6.51,43.62,43.62,0,0,0,5.9,3.2,5.07,5.07,0,0,0,1.67.75c-.63-.11-1.23-.55-1.94-.63a15.8,15.8,0,0,1-6.75-3.23c-.44-.38-.8-1.18-1.3-1.08s-.78.82-1.15,1.29a25.28,25.28,0,0,0-3.82,6.52H7.68a6.59,6.59,0,0,1,2.53-3.65,4.07,4.07,0,0,1,3.44-1.06,20.6,20.6,0,0,1,3.22,1.07,81,81,0,0,0,9.63,3.64h8.82a9,9,0,0,0,1-.66c.51-.39.92-.9,1.4-1.33,1.18-1.06,2.21-1,3.16.16.48.6.94,1.22,1.39,1.83h1.34A41.41,41.41,0,0,0,41,39.61c-.13-.2-.25-.52-.59-.21-.85.8-1.9,1.35-2.77,2.14a7.64,7.64,0,0,1-5.45,2.14,13.24,13.24,0,0,1-6.57-1.88c-1.35-.54-2.73-1-4.05-1.56a6.59,6.59,0,0,0-2.17-.87c-2.69-1-5.28-2.23-7-4.62a7.23,7.23,0,0,1-1.29-7,29.12,29.12,0,0,0,1.41-5.49,11.53,11.53,0,0,1,1.37-3.78c-.17-.15-.27-.39-.53-.41a3.71,3.71,0,0,1-.59,2.1,23.15,23.15,0,0,1-2.6-6.78c-.14-.63.06-1.34-.39-1.91,0,.33,0,.67,0,1a22.45,22.45,0,0,0,2,7.27,2.8,2.8,0,0,1,.17,2c-.5,1.88-1,3.76-1.71,5.59-.34.9-.67,1.79-1,2.69C9.13,30.16,9,30.57,9.35,30.48Z"/>
    <path class="e" d="M27.73,4.41a6.24,6.24,0,0,1,.92-1.68c.48-.7,1-.7,1.45,0A23,23,0,0,1,32.9,9a8.22,8.22,0,0,1,.57,2.55,1.5,1.5,0,0,1-1.95-1.11A24.83,24.83,0,0,0,30,5.86a4.46,4.46,0,0,0-.58-1,33.78,33.78,0,0,0-1.06,4.31c0,.07,0,.14,0,.22-.19,1.4-.45,1.58-1.89,1.34-.53-.21-.41-.63-.31-1a21.5,21.5,0,0,1,1.49-4.9A.62.62,0,0,0,27.73,4.41Z"/>
    <path class="f" d="M25.61,41.8a.22.22,0,0,1-.26.07,35,35,0,0,1-6-2.5l-1.6-1.2a.87.87,0,0,1-.39-.49l4.26,1.78a2,2,0,0,0,.68.2c.45,0,.68-.06.27-.58a3.4,3.4,0,0,1,1.57.66,26.09,26.09,0,0,0,6,2.62c.16,0,.26.11.28.28a16.84,16.84,0,0,1-4.24-1.2l-1.64-.61C24.87,41.34,25.31,41.49,25.61,41.8Z"/>
    <path class="g" d="M26.46,10.55c1.8,0,1.39.29,1.72-1.42a37.66,37.66,0,0,1,1.17-4.68,1.91,1.91,0,0,1,.67.91A25.46,25.46,0,0,1,31.6,9.93c.28,1.28.49,1.48,1.87,1.65a1.12,1.12,0,0,1,.15.67c-.22.14-.42,0-.6-.07a13.64,13.64,0,0,0-3-.77,15.59,15.59,0,0,0-5-.2.46.46,0,0,1-.47-.09l.17-.45A1.67,1.67,0,0,1,26.46,10.55Z"/>
    <path class="h" d="M30.16,11.35a16.46,16.46,0,0,1,3.46.9c3.61,1.3,5.72,4,6.92,7.5a3.15,3.15,0,0,1,.09.42c-.48,0-.5-.41-.66-.69s-.12-.57-.51-.56a16,16,0,0,0-1.69-3.2,5.3,5.3,0,0,0-4.27-2.19A3.64,3.64,0,0,0,30.61,15c-.63.75-.63.76-1.47.21a5.84,5.84,0,0,1-.56-.42.77.77,0,0,1,.69.28c.39.36.73.32,1.08-.11a3.63,3.63,0,0,1,3.91-1.49.93.93,0,0,0,.29,0H35c.08-.24-.1-.27-.21-.32a12.81,12.81,0,0,0-4.69-1.56c-.08,0-.16-.08-.24-.12S30.07,11.36,30.16,11.35Z"/>
    <path class="i" d="M39.46,18.92c.15-.22.29-.53.48,0s.24,1,.69,1.26c.21.6.47,1.18.62,1.8a3.34,3.34,0,0,0,1.53,2.19,2.48,2.48,0,0,1,.55.52c.15.22.26.46-.16.53a3,3,0,0,0-3.05-.32l.11-1.1a7.74,7.74,0,0,0-.29-2.62Z"/>
    <path class="j" d="M43.17,25.21c.49-.58-.36-.66-.39-1.05a4.21,4.21,0,0,1,2,3.13A9.59,9.59,0,0,1,43.7,33.9a18.28,18.28,0,0,1-3.82,4.84c-.22.19-.43.41-.66,0,.16-.59.83-.68,1.11-1.15l2-2.42a13.83,13.83,0,0,0,1.85-3.45C44.9,29.41,45,27.16,43.17,25.21Z"/>
    <path class="k" d="M26.46,10.55l-1.7.12a7.48,7.48,0,0,1,.83-2.1,25.15,25.15,0,0,1,2.14-4.16c.26.26,0,.5-.07.7A33.84,33.84,0,0,0,26.27,10,.43.43,0,0,0,26.46,10.55Z"/>
    <path class="l" d="M40.33,37.62c0,.69-.79.71-1.11,1.15a6.28,6.28,0,0,1-1.45,1.59c.14-.66.71-1,1.07-1.56a18,18,0,0,0,1.36-2.1C40.55,37,40,37.36,40.33,37.62Z"/>
    <path class="m" d="M30.16,11.35l-.27.09c-1-.1-1.93-.26-2.89-.28a18.63,18.63,0,0,0-4.7.59,2.58,2.58,0,0,1-.91.1,14.7,14.7,0,0,1,3.2-.73A20,20,0,0,1,30.16,11.35Z"/>
    <path class="n" d="M18.94,10.71A3,3,0,0,1,17.29,9,8.7,8.7,0,0,1,18.94,10.71Z"/>
    <path class="o" d="M19.13,40.53l1.77.7a3.81,3.81,0,0,1-2-.58Z"/>
    <path class="p" d="M35.65,30.88A5.16,5.16,0,0,0,40.23,28c.34-.48.77-.31,1.14-.1s.25.62.07.94c-1.49,2.62-3.59,4.3-6.73,4.37a6.75,6.75,0,0,0-1.42.2c-3.69.92-7.14.08-10.51-1.39A10.56,10.56,0,0,1,20,30.53c-.52-.45-.5-.66.05-1.1-1,.21-1.47.65-1.59,1.57.34-.82.52-.88,1.22-.33,1.62,1.29,3.12,2.73,4.79,4a24.21,24.21,0,0,0,5.23,3.22,6.54,6.54,0,0,0,4.61.28,5,5,0,0,0,2.39-1.75,20.88,20.88,0,0,0,2.1-3.24c.78-1.48,1.91-2.74,2.72-4.2.13-.23.3-.45.59-.26-.29-.88-.9-1.13-2-.8a.48.48,0,0,1-.08-.69,1.94,1.94,0,0,1,1.82-.93,1.56,1.56,0,0,1,1.49,1,2.9,2.9,0,0,1,0,2.36c-.19.43-.49.92-.92.93-.68,0-.78.45-1,.89-.86,1.89-1.86,3.7-2.89,5.5-2.35,4.11-5.91,4.45-9.49,3a23.86,23.86,0,0,1-6.2-4.17c-1-.86-2-1.78-3-2.69A1.1,1.1,0,0,0,19,32.8a2.05,2.05,0,0,1-2.19-1.15A2.43,2.43,0,0,1,17,29a2.89,2.89,0,0,1,3.89-.71c.08.06.18.1.22.18.9,1.69,2.69,1.92,4.22,2.47a10.65,10.65,0,0,0,7.09.22,2.47,2.47,0,0,1,1.21-.36c.43.3.79,0,1.17-.12S35.41,30.66,35.65,30.88Z"/>
    <path class="q" d="M34.73,30.81c-.3.27-.58.71-1,.11a6,6,0,0,1-2.54-1,2.65,2.65,0,0,1-1.35-2.43,2.31,2.31,0,0,1,1.42-1.79A7.15,7.15,0,0,1,33.49,25c.49-.22.5-.5.27-1a4.06,4.06,0,0,1-.18-2.93,2.53,2.53,0,0,1,4.17-1.4,3.6,3.6,0,0,1,.43,5.45s-.07.08-.11.09c-.72.29-.94.72-.44,1.39a2.8,2.8,0,0,1-.43,2.63A3.29,3.29,0,0,1,34.73,30.81Z"/>
    <path class="r" d="M24.32,16.6c1.64,1.58,3.23,3.22,4.73,4.94a1.67,1.67,0,0,1,.51,1.26c0,.69-.08,1.38-.07,2.07a1,1,0,0,1-.65,1.07,10.19,10.19,0,0,0-3.73,3.35c-.28.39-.44.52-.82.1a8.86,8.86,0,0,0-2-1.64,32.8,32.8,0,0,1-4.14-3.47c-.4-.33-.12-.52.06-.75,1.35-1.73,2.72-3.43,4-5.17a10.94,10.94,0,0,0,1.31-1.86C23.88,16.19,24.12,16.27,24.32,16.6Z"/>
    <path class="s" d="M40.15,27.89a1.39,1.39,0,0,1,1.66-.1,1.16,1.16,0,0,1,.52,1.42c-.28-.05-.18-.37-.37-.49-1.24,1.92-2.58,3.76-3.69,5.76a9,9,0,0,1-2.49,3.1,5.93,5.93,0,0,1-6,.5,26.08,26.08,0,0,1-6.76-4.36c-1.18-1-2.33-2-3.5-2.94-.63-.52-.68-.49-.86.31a4.87,4.87,0,0,1-.18.55,1.24,1.24,0,0,1,0-1.5,2.09,2.09,0,0,1,2.09-.9c0,.22-.15.28-.3.35-.71.31-.75.44-.1.87a19.36,19.36,0,0,0,5.86,2.59,16,16,0,0,0,7.9.12c1.14-.27,2.36-.14,3.47-.68A8.16,8.16,0,0,0,41.15,29c.15-.27.54-.59.26-.88A.89.89,0,0,0,40.23,28Z"/>
    <path class="t" d="M37.63,26.58l-.83-.91c.47-.34,1.06-.41,1.46-.86a3.11,3.11,0,0,0,.55-3.33,3.19,3.19,0,0,0-2.5-2.28,2.55,2.55,0,0,0-2.7,2.6,4.29,4.29,0,0,0,.83,3l-.95.12a4.62,4.62,0,0,1-.75-4.27c.57-1.51,1.16-3,1.74-4.51.2-.5.53-.58,1-.3a53.85,53.85,0,0,1,4.49,5.29,2.8,2.8,0,0,1,.29,2.63c-.5,1.26-1,2.52-1.52,3.81C38.28,27.31,38.08,26.82,37.63,26.58Z"/>
    <path class="u" d="M19.42,18.16a4.65,4.65,0,0,1,5.64-3.53,8.47,8.47,0,0,1,2.33.85A1.37,1.37,0,0,1,28,17.25a.48.48,0,0,1-.7.28l-1.87-.67a4.1,4.1,0,0,0-5.07.85C20.13,18,19.94,18.45,19.42,18.16Z"/>
    <path class="v" d="M35.45,15.88a.94.94,0,0,0-1,.3c-.35.24-.69.5-1.06.72s-.9.52-1.22.1a1.14,1.14,0,0,1,.1-1.45c1.91-2.25,4.08-1.65,5.41.67a.79.79,0,0,1,.16.67C37.07,16.53,36.41,15.81,35.45,15.88Z"/>
    <path class="w" d="M29.86,27.46c.36,1.85,1.71,2.65,3.33,3.16.2.07.5-.05.56.3-.45,0-.83.35-1.3.25a4.75,4.75,0,0,1-2.54-2.35A1.52,1.52,0,0,1,29.86,27.46Z"/>
    <path class="x" d="M19.42,18.16c.46.06.66-.28.89-.59a4,4,0,0,1,5-.88c.06,0,.09.12.13.17l-1.13-.26a.89.89,0,0,0-.73-.1,6.56,6.56,0,0,0-3.72,1.89c-.1.11-.19.32-.39.19A.25.25,0,0,1,19.42,18.16Z"/>
    <path class="y" d="M44.19,31.75a5.79,5.79,0,0,1-1.85,3.45,24.56,24.56,0,0,0,1.38-3C43.79,32,43.9,31.77,44.19,31.75Z"/>
    <path class="z" d="M34.73,30.81a7.61,7.61,0,0,0,2.47-1.6c-.2.85-.9,1.23-1.55,1.67A1.27,1.27,0,0,1,34.73,30.81Z"/>
    <path class="aa" d="M13.84,18.43c-.4.15-.37-.25-.53-.41a17.73,17.73,0,0,1-1.82-6,17.15,17.15,0,0,1,0-4c.1-.66.36-.61.79-.3a16.22,16.22,0,0,1,1.75,1.57,21.37,21.37,0,0,1,3.37,4.32.15.15,0,0,1,0,.19,14.16,14.16,0,0,0-2.95,3.41Z"/>
    <path class="ab" d="M14.46,17.18a9,9,0,0,1,3-3.6c.21.16.06.29-.05.4a19.17,19.17,0,0,0-2.68,3.08C14.67,17.13,14.55,17.14,14.46,17.18Z"/>
    <path class="ac" d="M30.6,10.7c-.4,0-.79-.09-1.19-.12-.92-.07-.93-.06-.79-1s.29-1.63.43-2.44c.06-.29.22-.41.51-.26a.91.91,0,0,1,.49.58c.24.82.55,1.62.78,2.44C30.91,10.2,31,10.52,30.6,10.7Z"/>
    <path class="ad" d="M30.6,10.7a.8.8,0,0,0,.07-.75c-.28-.82-.51-1.67-.81-2.49-.12-.34-.34-.73-.81-.32a2.91,2.91,0,0,1,.51-1.61,28,28,0,0,1,1.58,5C31.27,11.06,30.85,10.78,30.6,10.7Z"/>
    <path class="ae" d="M34,25.76a6.67,6.67,0,0,1,1.88.27c.39.07.72.28.73.65s-.36.62-.7.72a5.06,5.06,0,0,1-2.25.18,3.46,3.46,0,0,1-1.56-.44c-.18-.14-.47-.18-.43-.49s.24-.4.47-.49A3.47,3.47,0,0,1,34,25.76Z"/>
    <path class="af" d="M35.58,21.77a.47.47,0,0,1-.57-.48.51.51,0,0,1,.54-.61.5.5,0,0,1,.54.54C36.09,21.55,35.94,21.77,35.58,21.77Z"/>
    <path class="ag" d="M37.19,21.48c0,.26-.16.48-.43.49s-.28-.26-.28-.48.09-.43.35-.44S37.18,21.24,37.19,21.48Z"/>
    <path class="ah" d="M24.75,26.79a3.44,3.44,0,0,1-3.55-3.51,3.47,3.47,0,0,1,3.34-3.58,3.64,3.64,0,0,1,3.63,3.72A3.17,3.17,0,0,1,24.75,26.79Z"/>
    <path class="ai" d="M35.31,37.19c-1.9,1.35-3.86,1.08-5.81.16-.84-.4-1.62-.91-2.44-1.35-.43-.23-.39-.43,0-.62,1.31-.63,4.12-.78,5.41.67a1.06,1.06,0,0,1,.53.61,1.49,1.49,0,0,1-.18-.45c0-.24,0-.51.28-.56A3,3,0,0,1,35,35.8C35.64,36.14,35.72,36.54,35.31,37.19Z"/>
    <path class="aj" d="M35.31,37.19c.26-.8-.07-1.34-.91-1.4-.45,0-1-.16-1.32.06s.23.74.21,1.17c0,.11,0,.22,0,.52l-.85-1.49c.17,0,.3-.08.18-.26s-.37-.49-.55-.73-.53-.33-.4-.6.46-.22.7-.23a7.64,7.64,0,0,1,1.85,0,2,2,0,0,1,1.45,1.51C35.9,36.27,36,36.85,35.31,37.19Z"/>
    <path class="ak" d="M38.41,33a11.51,11.51,0,0,1-1.23,1.88c-.07.1-.16.18-.23.28-.53.8-.53.8-1.07,0l-.12-.18c-.55-.94-.54-.92.47-1.29.62-.23,1.21-.52,1.82-.78.11-.05.23-.11.33,0A.18.18,0,0,1,38.41,33Z"/>
    <path class="al" d="M13.85,16.86c-.52,0-.55-.46-.69-.77A13,13,0,0,1,12,10.78a5.46,5.46,0,0,1,.12-2.09,1.87,1.87,0,0,1,1,.79,15.27,15.27,0,0,1,1.74,3.17,2.13,2.13,0,0,1-.11,2.29A21.18,21.18,0,0,0,13.85,16.86Z"/>
    <path class="am" d="M13.85,16.86a4.42,4.42,0,0,1,.88-2.21,1.49,1.49,0,0,0,.17-1.42A16.35,16.35,0,0,0,13.23,10c-.34-.46-.79-.8-1.11-1.26.18-.44.39-.11.51,0a28.09,28.09,0,0,1,3.78,4.43c.13.21.23.43,0,.64a13.58,13.58,0,0,0-2.34,2.93C14,16.77,13.92,16.81,13.85,16.86Z"/>
    <path class="an" d="M35.73,26.49a3,3,0,0,1-2.78.13A2.6,2.6,0,0,1,35.73,26.49Z"/>
    <path class="ao" d="M24.4,22.49c-.57,0-.74-.25-.73-.62a.63.63,0,0,1,.69-.66.57.57,0,0,1,.59.65C24.93,22.29,24.69,22.5,24.4,22.49Z"/>
    <path class="ap" d="M25.89,22c.29.07.58.11.53.46s-.14.46-.44.44-.39-.23-.38-.49S25.61,22,25.89,22Z"/>
  </g>
  <g>
    <path class="aq" d="M84.06,21a.62.62,0,0,1,0-.63c.87-1.58,1.73-3.17,2.59-4.75.19-.35.37-.69.53-1.05s0-.48-.32-.48a11.36,11.36,0,0,1-1.43,0,1.05,1.05,0,0,0-1.14.72c-.45.88-.89,1.75-1.32,2.63s-1.09,1.8-1.63,2.72a8.55,8.55,0,0,0,.05-1.82c0-1.16,0-2.32,0-3.47,0-.59-.18-.77-.73-.78s-.84,0-1.26,0-.68.15-.68.67l.09,9.06c0,1.6,0,3.2,0,4.81a1.3,1.3,0,0,0,.12.75.33.33,0,0,0,.33.23,14.77,14.77,0,0,0,1.63,0,.48.48,0,0,0,.47-.6h0c0-1.22,0-2.45,0-3.67-.06-.86.49-1.39.85-2.16.77,1.78,1.49,3.46,2.22,5.13.11.31.2.63.32.93a.64.64,0,0,0,.62.39h1.72a.42.42,0,0,0,.47-.35c.13-.26,0-.48-.13-.69Q85.78,24.75,84.06,21ZM78.89,14.8Z"/>
    <path class="aq" d="M114.87,14.5a.45.45,0,0,0-.5-.43h-7.32a.41.41,0,0,0-.46.48c0,.42,0,.84,0,1.25,0,.76.08.89.83.88h1.08c.7,0,.7,0,.84.63l0,1.89a.29.29,0,0,0,0,.09c0,3.26,0,6.53.07,9.79a1.33,1.33,0,0,0,0,.34c0,.11.09.08.15,0h0c.65,0,1.3,0,2,0,.36,0,.46-.14.52-.4a2.28,2.28,0,0,0,0-.52V23.78c0-2.37,0-4.73,0-7.1h2.14c.2,0,.41,0,.47-.25h0A6.19,6.19,0,0,0,114.87,14.5Z"/>
    <path class="aq" d="M76.64,14.78c0-.51-.21-.71-.72-.71h-.86c-.63,0-.77.13-.77.76,0,2,0,3.93,0,5.89,0,.76,0,1.51,0,2.3-.48-1.05-.84-2.11-1.23-3.16-.59-1.56-1.16-3.12-1.73-4.68l0,0h0l.07,0a2.48,2.48,0,0,0-.27-.73.63.63,0,0,0-.61-.39l-1.65,0a.55.55,0,0,0-.61.62c0,.45,0,.89,0,1.34,0,3.92,0,7.85.08,11.77,0,.45,0,.89,0,1.34,0,.29.17.41.45.4l1.38,0c.36,0,.57-.18.51-.58h0c0-2.9,0-5.8,0-8.81.36.9.69,1.69,1,2.48.75,2.27,1.71,4.47,2.52,6.72a.43.43,0,0,0,.46.3c.48,0,1,0,1.44,0a.54.54,0,0,0,.63-.55,4.38,4.38,0,0,0,0-.51c0-2.26,0-4.51,0-6.77S76.64,17.11,76.64,14.78ZM72.85,25.42h0a0,0,0,0,1,0,0A0,0,0,0,0,72.85,25.42Z"/>
    <path class="aq" d="M63.35,13.91c-.61,0-1.21,0-1.83,0a.14.14,0,0,0-.17.06c-2,.58-3.14,1.83-3,3.79a1.05,1.05,0,0,0-.06.24v.66c0,2.44,0,4.87,0,7.29a3.67,3.67,0,0,0,1.93,3.32,3.07,3.07,0,0,0,1.39.37l-.45-.17a9,9,0,0,0,2.07.06,3.61,3.61,0,0,0,3.38-3.43c.06-2.8.08-5.61,0-8.42A3.82,3.82,0,0,0,63.35,13.91Zm-2.72,7.75,0,0v.06S60.63,21.68,60.63,21.66ZM64,25.44a2.4,2.4,0,0,1-.21,1,1.51,1.51,0,0,1-2.85-.62V17.93a1.5,1.5,0,0,1,.21-.95h0s0,0,0,0,0,0,.08,0a.37.37,0,0,1,.11-.19.63.63,0,0,0-.21.19s-.07,0-.15,0a1.84,1.84,0,0,1,1.62-.79,1.19,1.19,0,0,1,1.1.69,1.61,1.61,0,0,1,.34,1v7.64Z"/>
    <path class="aq" d="M95.47,21.63s0-.05,0-.09a3.67,3.67,0,0,0,1.47-2.75,9.64,9.64,0,0,0-.15-2.46,2.12,2.12,0,0,0-.82-1.39,2.59,2.59,0,0,0-2-.85c-1.35-.06-2.7,0-4,0-.28-.09-.54.07-.81.08-.43,0-.56.17-.55.62,0,1.08.1,2.16.11,3.25,0,3.57,0,7.14,0,10.71,0,.28,0,.59.24.79h0s.1.07.15.07c1.84,0,3.68.06,5.51-.1a1.91,1.91,0,0,0,1.48-.86h0a5.42,5.42,0,0,0,1-4.21A3,3,0,0,0,95.47,21.63ZM94,16.85a5.62,5.62,0,0,1,.17,2.27,1.11,1.11,0,0,1-1.2,1.19c-.48,0-1.08.16-1.4-.06s-.11-.87-.15-1.34a19.47,19.47,0,0,0-.11-2.51h1.79A1.2,1.2,0,0,1,94,16.85Zm.25,6.57a8.09,8.09,0,0,1,.06,2.6,1,1,0,0,1-.85.89,6.53,6.53,0,0,1-1.59.07c-.32,0-.45-.11-.43-.47V22.83a.1.1,0,0,1,0-.07s0,0,0,0h0a.07.07,0,0,0,0,.06.26.26,0,0,1,0-.21,5.14,5.14,0,0,1,2.34.15A.54.54,0,0,1,94,23c.06.1.13.17.19.27S94.21,23.36,94.21,23.42Z"/>
    <path class="aq" d="M55.44,21.71h0s-.06-.08-.09-.09h0A2.85,2.85,0,0,0,56.47,20a5.76,5.76,0,0,0,.22-2.57h0a1.08,1.08,0,0,0,0-.19A3,3,0,0,0,54,14.16a33.65,33.65,0,0,0-5-.06c-.32,0-.51.17-.43.55a2.72,2.72,0,0,1,0,.64c0,2.17,0,4.34,0,6.51h0v3.54a.77.77,0,0,1,0,.3l0-.3c0,1.22,0,2.45,0,3.68,0,.42.22.58.69.58,1.35,0,2.71,0,4.07,0a3.73,3.73,0,0,0,1.77-.33,2.45,2.45,0,0,0,1.36-1.57h0a4.12,4.12,0,0,0,.43-1.12,8.92,8.92,0,0,0-.1-3A2.19,2.19,0,0,0,55.44,21.71Zm-4.19-2.33a6.65,6.65,0,0,1,0-1.41,9.78,9.78,0,0,0-.1-1.63l2,.06a1.07,1.07,0,0,1,.76.28c0,.08,0,.17,0,.27A5.49,5.49,0,0,1,54,19.53c-.09.53-.57.72-1,.78s-.83,0-1.24,0-.45-.07-.42-.41A2.53,2.53,0,0,0,51.25,19.38Zm3,4.19s0,.06,0,.09,0,.27,0,.4c0,.49,0,1,0,1.47a1,1,0,0,1,0,.26v.05c-.1.75-.33,1-1.08,1.11-.46.06-.93,0-1.39,0s-.52-.09-.51-.5c0-1.13,0-2.26,0-3.38,0-.32.23-.35.48-.37a6.17,6.17,0,0,1,2.18.33h0a1,1,0,0,1,.15.11.24.24,0,0,1,.06.09l0,0A.71.71,0,0,1,54.22,23.57Z"/>
    <path class="aq" d="M105.21,27c-1.12,0-2.23,0-3.35,0-.34,0-.4-.11-.39-.42,0-1.14,0-2.28,0-3.43a1,1,0,0,0-.07-.5h.67c-.11.14-.31,0-.46.15.41.06.79,0,1.17.06a6.66,6.66,0,0,0,2.09,0h0a.45.45,0,0,0,.33-.53V21.05c0-.59-.08-.68-.67-.68-.93,0-1.85,0-2.78,0-.3,0-.38-.1-.37-.4,0-1,0-1.93,0-2.9,0-.16,0-.32.1-.45h3.76c.2,0,.46.06.49-.27a5.39,5.39,0,0,0,0-1.92c0-.3-.3-.35-.57-.35H99c-.26,0-.46.08-.51.36v.51a16.32,16.32,0,0,0,.06,2.21c0,.45,0,.9,0,1.35V29a.55.55,0,0,0,.25.47c.09.13.23.1.36.1h6a.57.57,0,0,0,.5-.18h0c.2-.11.2-.3.2-.49V27.72C105.93,27.07,105.86,27,105.21,27Zm-4-9.28v0Zm0,9.62s0,0,0,0l0,0Zm4.35-11h0v0h0Zm-7,0s0,0,0,0,0,.07,0,.1a.19.19,0,0,1,0-.08h0S98.62,16.3,98.6,16.31Z"/>
    <path class="aq" d="M63.46,16.76a.2.2,0,0,1,.07,0,.09.09,0,0,0-.09-.08A.07.07,0,0,1,63.46,16.76Z"/>
    <path class="aq" d="M93.55,22.83a2.32,2.32,0,0,0-.77-.17A7.64,7.64,0,0,1,93.55,22.83Z"/>
  </g>
</svg>
